HIERARCHY
ROOT Hips
{
    OFFSET 0.000000 0.000000 0.000000
    CHANNELS 6 Xposition Yposition Zposition Zrotation Xrotation Yrotation
    JOINT Spine
    {
        OFFSET -0.000000 7.883683 0.000000
        CHANNELS 3 Zrotation Xrotation Yrotation
        JOINT Spine1
        {
            OFFSET -0.000000 24.776327 0.000000
            CHANNELS 3 Zrotation Xrotation Yrotation
            JOINT Neck
            {
                OFFSET -0.000000 24.674574 2.243143
                CHANNELS 3 Zrotation Xrotation Yrotation
                JOINT Head
                {
                    OFFSET -0.000000 13.459947 -1.922849
                    CHANNELS 3 Zrotation Xrotation Yrotation
                    End Site
                    {
                        OFFSET -0.000000 24.035618 0.000000
                    }
                }
            }
            JOINT LeftShoulder
            {
                OFFSET 3.810223 22.323311 -0.325006
                CHANNELS 3 Zrotation Xrotation Yrotation
                JOINT LeftArm
                {
                    OFFSET 12.560579 0.000000 0.000000
                    CHANNELS 3 Zrotation Xrotation Yrotation
                    JOINT LeftForeArm
                    {
                        OFFSET 28.806782 0.000000 0.000000
                        CHANNELS 3 Zrotation Xrotation Yrotation
                        JOINT LeftHand
                        {
                            OFFSET 23.813900 0.000000 0.000000
                            CHANNELS 3 Zrotation Xrotation Yrotation
                            End Site
                            {
                                OFFSET 14.421371 0.000000 0.000000
                            }
                        }
                    }
                }
            }
            JOINT RightShoulder
            {
                OFFSET -3.823061 22.323311 -0.325006
                CHANNELS 3 Zrotation Xrotation Yrotation
                JOINT RightArm
                {
                    OFFSET -12.560579 0.000000 0.000000
                    CHANNELS 3 Zrotation Xrotation Yrotation
                    JOINT RightForeArm
                    {
                        OFFSET -28.806782 0.000000 0.000000
                        CHANNELS 3 Zrotation Xrotation Yrotation
                        JOINT RightHand
                        {
                            OFFSET -23.813900 0.000000 0.000000
                            CHANNELS 3 Zrotation Xrotation Yrotation
                            End Site
                            {
                                OFFSET -14.421371 0.000000 0.000000
                            }
                        }
                    }
                }
            }
        }
    }
    JOINT LeftUpLeg
    {
        OFFSET 9.614247 0.000000 0.000000
        CHANNELS 3 Zrotation Xrotation Yrotation
        JOINT LeftLeg
        {
            OFFSET -0.000000 -41.464203 0.000000
            CHANNELS 3 Zrotation Xrotation Yrotation
            JOINT LeftFoot
            {
                OFFSET -0.000000 -34.276012 0.000000
                CHANNELS 3 Zrotation Xrotation Yrotation
                JOINT LeftToeBase
                {
                    OFFSET -0.000000 -6.249260 14.421371
                    CHANNELS 3 Zrotation Xrotation Yrotation
                    End Site
                    {
                        OFFSET -0.000000 0.000000 3.845699
                    }
                }
            }
        }
    }
    JOINT RightUpLeg
    {
        OFFSET -9.614247 0.000000 0.000000
        CHANNELS 3 Zrotation Xrotation Yrotation
        JOINT RightLeg
        {
            OFFSET -0.000000 -41.464203 0.000000
            CHANNELS 3 Zrotation Xrotation Yrotation
            JOINT RightFoot
            {
                OFFSET -0.000000 -34.276012 0.000000
                CHANNELS 3 Zrotation Xrotation Yrotation
                JOINT RightToeBase
                {
                    OFFSET -0.000000 -6.249260 14.421371
                    CHANNELS 3 Zrotation Xrotation Yrotation
                    End Site
                    {
                        OFFSET -0.000000 0.000000 3.845699
                    }
                }
            }
        }
    }
}
MOTION
Frames:    11
Frame Time:    0.004000
-24.348324    80.353630    -193.342728    0.003757    -1.674028    2.865849    0.401239    -2.689589    -0.313374    -0.648751    -4.704338    -0.349604    4.463223    14.933273    -2.042204    0.033867    6.909452    -2.179340    14.569815    1.160168    5.816308    -22.975147    -3.364405    -4.538321    0.899148    -0.064734    1.432622    -3.279878    0.061899    -4.808227    -14.824941    -1.985740    12.620660    17.027308    -2.372034    1.055766    -2.226007    -0.033961    3.510488    -1.385508    0.021522    1.001765    0.999515    8.964881    0.750867    -9.168507    -4.658670    -1.823578    8.412373    -2.699509    17.090828    0.000000    0.000000    0.000000    -0.322960    9.724544    0.122859    4.831567    -8.308242    -0.207155    -4.893868    -0.628024    -8.794417    0.000000    0.000000    0.000000    
-24.353920    80.353752    -193.340179    0.001381    -1.683229    2.863963    0.397886    -2.681314    -0.313027    -0.650483    -4.707726    -0.349280    4.440838    14.939842    -2.048051    0.064763    6.928369    -2.182352    14.574027    1.160397    5.824887    -22.981241    -3.327513    -4.539836    0.895313    -0.081755    1.412018    -3.237676    0.043642    -4.831450    -14.822762    -1.980552    12.624014    17.044651    -2.382793    1.057153    -2.232457    -0.030192    3.514457    -1.341242    0.026582    1.009678    1.005603    8.972653    0.759022    -9.169409    -4.654507    -1.831798    8.409949    -2.700206    17.101086    0.000000    0.000000    0.000000    -0.315863    9.730538    0.119145    4.830864    -8.300501    -0.214382    -4.906792    -0.622491    -8.780813    0.000000    0.000000    0.000000    
-24.358658    80.353371    -193.341568    0.003610    -1.673558    2.871703    0.390557    -2.692370    -0.315731    -0.658327    -4.707805    -0.352046    4.451013    14.938990    -2.052315    0.051198    6.959755    -2.188083    14.573548    1.169143    5.824259    -22.982368    -3.353048    -4.544420    0.846030    -0.105007    1.400658    -2.913671    0.007758    -4.832107    -14.808325    -1.976020    12.621819    17.058121    -2.387878    1.059448    -2.248362    -0.027272    3.526695    -1.327650    0.029901    0.992618    1.009960    8.960834    0.741152    -9.176120    -4.655766    -1.823409    8.435453    -2.698466    17.094532    0.000000    0.000000    0.000000    -0.313951    9.721541    0.132936    4.825898    -8.308323    -0.261432    -4.883188    -0.620699    -8.758043    0.000000    0.000000    0.000000    
-24.362576    80.353317    -193.337906    0.004798    -1.689132    2.869000    0.380575    -2.683282    -0.313730    -0.650248    -4.701838    -0.349428    4.453349    14.949494    -2.055753    0.032129    6.972141    -2.192849    14.569007    1.158818    5.818988    -22.990873    -3.352226    -4.534006    0.853117    -0.104634    1.382057    -2.871968    0.005644    -4.826400    -14.808537    -1.976058    12.620023    17.068716    -2.383646    1.060760    -2.235255    -0.019481    3.532097    -1.357830    0.038328    1.006487    1.009310    8.985556    0.750474    -9.169712    -4.666135    -1.835133    8.366673    -2.702297    17.118162    0.000000    0.000000    0.000000    -0.310592    9.739560    0.125741    4.827401    -8.304435    -0.250863    -4.922454    -0.631093    -8.753378    0.000000    0.000000    0.000000    
-24.368073    80.355606    -193.340439    0.007655    -1.674776    2.877682    0.366113    -2.697545    -0.316289    -0.644432    -4.704128    -0.351313    4.434080    14.953864    -2.061653    0.053920    6.995946    -2.196778    14.570222    1.150865    5.810365    -23.001101    -3.368551    -4.526285    0.859872    -0.109674    1.366039    -2.834957    -0.000781    -4.822759    -14.804467    -1.972966    12.620308    17.082914    -2.378651    1.060340    -2.249516    -0.041499    3.536983    -1.292877    0.015824    1.016774    1.011186    8.963677    0.752805    -9.167218    -4.659314    -1.826600    8.401237    -2.690761    17.074734    0.000000    0.000000    0.000000    -0.310127    9.721948    0.120770    4.828632    -8.296872    -0.220224    -4.898061    -0.625738    -8.798901    0.000000    0.000000    0.000000    
-24.371372    80.354134    -193.339645    0.010859    -1.675244    2.881742    0.357102    -2.700418    -0.318444    -0.642598    -4.701748    -0.353221    4.423995    14.955413    -2.063673    0.056372    7.020925    -2.198495    14.561643    1.160487    5.815346    -22.995125    -3.379021    -4.535635    0.852307    -0.117363    1.354846    -2.811517    -0.009130    -4.825384    -14.804539    -1.966681    12.620568    17.105238    -2.380745    1.062570    -2.262431    -0.034315    3.542401    -1.285891    0.025289    1.027217    1.007652    8.969824    0.749722    -9.163198    -4.667360    -1.832909    8.403459    -2.690475    17.088057    0.000000    0.000000    0.000000    -0.310540    9.722260    0.123296    4.825478    -8.294038    -0.209833    -4.916979    -0.640568    -8.798986    0.000000    0.000000    0.000000    
-24.376274    80.352386    -193.338287    0.010027    -1.680042    2.881717    0.347925    -2.701411    -0.318208    -0.636274    -4.697144    -0.352566    4.429008    14.968420    -2.068675    0.039133    7.030791    -2.204659    14.555247    1.149829    5.810298    -22.994350    -3.390443    -4.528000    0.862550    -0.122240    1.341153    -2.806499    -0.013972    -4.824554    -14.799156    -1.965573    12.623265    17.115137    -2.386899    1.063930    -2.268292    -0.080469    3.563493    -0.928377    -0.019762    1.044443    1.014383    8.973423    0.756664    -9.169174    -4.664626    -1.817791    8.408827    -2.695228    17.070272    0.000000    0.000000    0.000000    -0.306409    9.728400    0.112422    4.832188    -8.292425    -0.201482    -4.903066    -0.645919    -8.810430    0.000000    0.000000    0.000000    
-24.381634    80.352570    -193.337021    0.012188    -1.684625    2.887750    0.332502    -2.701182    -0.323629    -0.624018    -4.692518    -0.357061    4.409382    14.974667    -2.067296    0.047925    7.048946    -2.202018    14.558167    1.143202    5.807902    -23.011681    -3.417572    -4.522962    0.875793    -0.123209    1.338845    -2.797593    -0.015542    -4.833299    -14.797890    -1.965711    12.624842    17.133778    -2.377159    1.072072    -2.273962    -0.201965    3.619362    -0.653861    -0.135972    0.990291    1.016506    8.979534    0.755018    -9.167331    -4.668001    -1.839553    8.407379    -2.693108    17.079008    0.000000    0.000000    0.000000    -0.304732    9.734482    0.115438    4.829556    -8.296501    -0.211309    -4.915679    -0.632705    -8.800614    0.000000    0.000000    0.000000    
-24.385960    80.352524    -193.336456    0.012295    -1.691005    2.890248    0.326778    -2.697752    -0.326127    -0.622572    -4.689754    -0.359375    4.399189    14.979924    -2.068557    0.058146    7.068167    -2.202173    14.543875    1.146710    5.806364    -22.997648    -3.442441    -4.521041    0.876344    -0.135580    1.324242    -2.771392    -0.028920    -4.825136    -14.792895    -1.966366    12.631832    17.150333    -2.385798    1.068777    -2.249502    -0.095088    3.607271    -1.126784    -0.035314    0.994214    1.020909    8.985799    0.743806    -9.168923    -4.669793    -1.813149    8.400965    -2.697784    17.065237    0.000000    0.000000    0.000000    -0.301133    9.743713    0.117605    4.832250    -8.300111    -0.221821    -4.920253    -0.642808    -8.794966    0.000000    0.000000    0.000000    
-24.387926    80.352463    -193.337708    0.017308    -1.674559    2.892242    0.317215    -2.718590    -0.324531    -0.623505    -4.687890    -0.357672    4.392480    14.986012    -2.075853    0.056928    7.094732    -2.209553    14.547807    1.141763    5.794155    -23.003574    -3.442728    -4.514583    0.889526    -0.145819    1.321840    -2.814418    -0.037136    -4.839824    -14.790285    -1.958603    12.634272    17.169844    -2.397318    1.065242    -2.256896    -0.091018    3.614621    -1.126975    -0.029405    1.001211    1.018041    8.968849    0.748825    -9.171266    -4.672210    -1.817597    8.376001    -2.689580    17.067074    0.000000    0.000000    0.000000    -0.308018    9.724689    0.115387    4.837637    -8.295284    -0.218510    -4.913691    -0.644119    -8.810975    0.000000    0.000000    0.000000    
-24.393711    80.351105    -193.334854    0.012900    -1.688211    2.896203    0.310618    -2.709257    -0.329104    -0.611829    -4.685269    -0.361550    4.381234    14.987000    -2.076923    0.051701    7.121347    -2.210924    14.539128    1.137155    5.791014    -22.993876    -3.427495    -4.504679    0.887346    -0.163708    1.312301    -2.807783    -0.055721    -4.828008    -14.792401    -1.957251    12.640032    17.185410    -2.407511    1.068654    -2.247614    -0.085004    3.618030    -1.130112    -0.028222    1.001523    1.029303    8.983268    0.748254    -9.173380    -4.663669    -1.844543    8.385253    -2.702829    17.097801    0.000000    0.000000    0.000000    -0.294441    9.738805    0.110291    4.827949    -8.288774    -0.193658    -4.927402    -0.651557    -8.818244    0.000000    0.000000    0.000000    
